<svg id="bc18d0a6-221d-4811-8895-01587ac4fbee" data-name="Layer 1" xmlns="http://www.w3.org/2000/svg" viewBox="0 0 137 137"><defs><style>.aabe2961-6152-47cb-a3b8-3464b19b6175{fill:#efefef;}.b47a53eb-ecb0-4a94-8793-4de1328272ac{fill:#fff;fill-rule:evenodd;}.b6e16a39-5142-435b-8cf2-47bfad84fcaa{fill:none;stroke:#000;stroke-linecap:round;stroke-linejoin:round;}</style></defs><title>powder-cook</title><circle class="aabe2961-6152-47cb-a3b8-3464b19b6175" cx="68.5" cy="68.5" r="68.5"/><path class="b47a53eb-ecb0-4a94-8793-4de1328272ac" d="M104.72,45.7c-5.86-1-22.65-2.18-34.32-2.2h0c-11.67,0-29.26,1.17-34.32,2.2-4.86.8-8.56,3.63-8.56,9.53v24c0,5.91,3.7,8.73,8.56,9.54C42.87,89.93,58.71,91,70.38,91h0c11.67,0,27.63-1,34.32-2.2,4.86-.81,8.56-3.63,8.56-9.54v-24c0-5.9-3.7-8.73-8.56-9.53"/><path class="b6e16a39-5142-435b-8cf2-47bfad84fcaa" d="M104.72,45.7c-5.86-1-22.65-2.18-34.32-2.2h0c-11.67,0-29.26,1.17-34.32,2.2-4.86.8-8.56,3.63-8.56,9.53v24c0,5.91,3.7,8.73,8.56,9.54C42.87,89.93,58.71,91,70.38,91h0c11.67,0,27.63-1,34.32-2.2,4.86-.81,8.56-3.63,8.56-9.54v-24C113.28,49.33,109.58,46.5,104.72,45.7Z"/><path class="b47a53eb-ecb0-4a94-8793-4de1328272ac" d="M39.7,74.42a2.09,2.09,0,0,1-4.17,0V60.09a2.09,2.09,0,0,1,4.17,0V74.42Z"/><path class="b6e16a39-5142-435b-8cf2-47bfad84fcaa" d="M39.7,74.42a2.09,2.09,0,0,1-4.17,0V60.09a2.09,2.09,0,0,1,4.17,0V74.42Z"/><path class="b47a53eb-ecb0-4a94-8793-4de1328272ac" d="M65.71,83.85a16.6,16.6,0,0,1,0-33.19Z"/><path class="b6e16a39-5142-435b-8cf2-47bfad84fcaa" d="M65.71,83.85a16.6,16.6,0,0,1,0-33.19Z"/><path class="b47a53eb-ecb0-4a94-8793-4de1328272ac" d="M75.06,83.85a16.6,16.6,0,0,0,0-33.19Z"/><path class="b6e16a39-5142-435b-8cf2-47bfad84fcaa" d="M75.06,83.85a16.6,16.6,0,0,0,0-33.19Z"/><path class="b47a53eb-ecb0-4a94-8793-4de1328272ac" d="M83.72,84.9c1.41,1.06,7.12-5.11,9.77-2.46l21.72,21.72,3.53-3.53L69.37,51.25s.81,23.51,14.35,33.65"/><path class="b6e16a39-5142-435b-8cf2-47bfad84fcaa" d="M83.72,84.9c1.41,1.06,7.12-5.11,9.77-2.46l21.72,21.72,3.53-3.53L69.37,51.25S70.18,74.76,83.72,84.9Z"/></svg>