<svg id="b8673cc7-bd77-4551-b7a8-de9592bc9ece" data-name="Layer 1" xmlns="http://www.w3.org/2000/svg" viewBox="0 0 137 137"><defs><style>.efcaca37-24da-4321-bb23-98ce3cc93858{fill:#efefef;}.b986d03e-80dd-4b0c-9440-7826fdba9ed2{fill:#fff;fill-rule:evenodd;}.a1ee7994-d050-4af7-be70-499c8ff43932{fill:none;stroke:#000;stroke-linecap:round;stroke-linejoin:round;}</style></defs><title>powder-choose</title><circle class="efcaca37-24da-4321-bb23-98ce3cc93858" cx="68.5" cy="68.5" r="68.5"/><path class="b986d03e-80dd-4b0c-9440-7826fdba9ed2" d="M81.42,55.79A13.3,13.3,0,1,1,68.12,42.5a13.29,13.29,0,0,1,13.3,13.29"/><path class="a1ee7994-d050-4af7-be70-499c8ff43932" d="M81.42,55.79A13.3,13.3,0,1,1,68.12,42.5,13.29,13.29,0,0,1,81.42,55.79Z"/><path class="b986d03e-80dd-4b0c-9440-7826fdba9ed2" d="M77.69,55.79a9.56,9.56,0,0,1-9.57,9.57h0a9.57,9.57,0,1,1,9.57-9.57"/><path class="a1ee7994-d050-4af7-be70-499c8ff43932" d="M77.69,55.79a9.56,9.56,0,0,1-9.57,9.57h0a9.57,9.57,0,1,1,9.57-9.57Z"/><path class="b986d03e-80dd-4b0c-9440-7826fdba9ed2" d="M52.09,55.79A13.3,13.3,0,1,1,38.79,42.5a13.29,13.29,0,0,1,13.3,13.29"/><path class="a1ee7994-d050-4af7-be70-499c8ff43932" d="M52.09,55.79A13.3,13.3,0,1,1,38.79,42.5,13.29,13.29,0,0,1,52.09,55.79Z"/><path class="b986d03e-80dd-4b0c-9440-7826fdba9ed2" d="M48.36,55.79a9.56,9.56,0,0,1-9.57,9.57h0a9.57,9.57,0,1,1,9.57-9.57"/><path class="a1ee7994-d050-4af7-be70-499c8ff43932" d="M48.36,55.79a9.56,9.56,0,0,1-9.57,9.57h0a9.57,9.57,0,1,1,9.57-9.57Z"/><path class="b986d03e-80dd-4b0c-9440-7826fdba9ed2" d="M110.75,55.79A13.3,13.3,0,1,1,97.45,42.5a13.3,13.3,0,0,1,13.3,13.29"/><path class="a1ee7994-d050-4af7-be70-499c8ff43932" d="M110.75,55.79A13.3,13.3,0,1,1,97.45,42.5,13.3,13.3,0,0,1,110.75,55.79Z"/><path class="b986d03e-80dd-4b0c-9440-7826fdba9ed2" d="M107,55.79a9.57,9.57,0,1,1-9.57-9.57A9.56,9.56,0,0,1,107,55.79"/><path class="a1ee7994-d050-4af7-be70-499c8ff43932" d="M107,55.79a9.57,9.57,0,1,1-9.57-9.57A9.56,9.56,0,0,1,107,55.79Z"/><path class="b986d03e-80dd-4b0c-9440-7826fdba9ed2" d="M72.63,73.51c.73-2.94,2.21-3.68,3.68-3.68,2.2,0,4.41,2.94,4.41,8.09.74-5.88,3.21-6.06,4.7-5.39,2,.89,2.66,4.66,2.66,8.33,0-3.67,2.17-5.26,4.41-5.15s3.29,2.88,3.32,5.22q.09,6.63,0,13.27A32,32,0,0,1,94.48,102c-.92,3.45-2,6.87-2.91,10.32A2.53,2.53,0,0,1,90,114.12H69.32c-.77-.26-.49-.8-.8-1.53-2.47-5.74-6-10.85-9.37-16.07-1.56-2.42-3-4.9-4.53-7.37-.83-1.38-4.06-6.81-.38-9,1.41-.85,4.18.44,5.29,1.7s4.79,6.89,5,7.13c0-.35-.39-16.31-.38-23.54,0-4.42,1.11-6.62,4.06-6.62,2.42,0,4.34,1.47,4.34,4.94v6.18"/><path class="a1ee7994-d050-4af7-be70-499c8ff43932" d="M72.63,73.51c.73-2.94,2.21-3.68,3.68-3.68,2.2,0,4.41,2.94,4.41,8.09.74-5.88,3.21-6.06,4.7-5.39,2,.89,2.66,4.66,2.66,8.33,0-3.67,2.17-5.26,4.41-5.15s3.29,2.88,3.32,5.22q.09,6.63,0,13.27A32,32,0,0,1,94.48,102c-.92,3.45-2,6.87-2.91,10.32A2.53,2.53,0,0,1,90,114.12H69.32c-.77-.26-.49-.8-.8-1.53-2.47-5.74-6-10.85-9.37-16.07-1.56-2.42-3-4.9-4.53-7.37-.83-1.38-4.06-6.81-.38-9,1.41-.85,4.18.44,5.29,1.7s4.79,6.89,5,7.13c0-.35-.39-16.31-.38-23.54,0-4.42,1.11-6.62,4.06-6.62,2.42,0,4.34,1.47,4.34,4.94v6.18"/></svg>