<svg id="edd2abf6-7dce-4d44-b148-ff3b52253ad1" data-name="Layer 1" xmlns="http://www.w3.org/2000/svg" viewBox="0 0 137 137"><defs><style>.b2c134a2-485a-4d43-b64a-e9dd605822bc{fill:#efefef;}.a7388ef6-90bd-4ffa-aa8e-c19f9a8d877c{fill:#fff;fill-rule:evenodd;}.ab7d1a8d-4cfd-491b-b4bf-91dffedf4226{fill:none;stroke:#000;stroke-linecap:round;stroke-linejoin:round;}</style></defs><title>powder-enjoy</title><circle class="b2c134a2-485a-4d43-b64a-e9dd605822bc" cx="68.5" cy="68.5" r="68.5"/><path class="a7388ef6-90bd-4ffa-aa8e-c19f9a8d877c" d="M107.75,69.12A37.63,37.63,0,1,1,70.12,31.5a37.63,37.63,0,0,1,37.63,37.62"/><path class="ab7d1a8d-4cfd-491b-b4bf-91dffedf4226" d="M107.75,69.12A37.63,37.63,0,1,1,70.12,31.5,37.63,37.63,0,0,1,107.75,69.12Z"/><path class="a7388ef6-90bd-4ffa-aa8e-c19f9a8d877c" d="M99.92,69.12A29.8,29.8,0,1,1,70.13,39.33,29.8,29.8,0,0,1,99.92,69.12"/><path class="ab7d1a8d-4cfd-491b-b4bf-91dffedf4226" d="M99.92,69.12A29.8,29.8,0,1,1,70.13,39.33,29.8,29.8,0,0,1,99.92,69.12Z"/><path class="a7388ef6-90bd-4ffa-aa8e-c19f9a8d877c" d="M76.72,50.49l-11,11s-2.55,2.54-2.55,4.24S64,70,61.46,72.53l-28,28,3.39,3.39,28-28c2.54-2.54,5.08-1.69,6.78-1.69s4.24-2.55,4.24-2.55l11-11"/><path class="ab7d1a8d-4cfd-491b-b4bf-91dffedf4226" d="M76.72,50.49l-11,11s-2.55,2.54-2.55,4.24S64,70,61.46,72.53l-28,28,3.39,3.39,28-28c2.54-2.54,5.08-1.69,6.78-1.69s4.24-2.55,4.24-2.55l11-11m-6.78-6.78-11,11M83.5,57.27l-11,11"/></svg>